<svg width="21" height="20" viewBox="0 0 21 20" fill="none" xmlns="http://www.w3.org/2000/svg">
<path d="M17.8704 8.4874H16.1478C16.2878 8.9916 16.3578 9.4958 16.3578 10C16.3578 10.8403 16.1968 11.6387 15.8747 12.395C15.5525 13.1513 15.1113 13.8095 14.5511 14.3697C13.9909 14.93 13.3326 15.3711 12.5763 15.6933C11.82 16.0154 11.0217 16.1765 10.1814 16.1765C9.34104 16.1765 8.54972 16.0154 7.80742 15.6933C7.06513 15.3711 6.41387 14.93 5.85364 14.3697C5.29342 13.8095 4.85224 13.1513 4.53011 12.395C4.20798 11.6387 4.04692 10.8403 4.04692 10C4.04692 9.4958 4.11695 8.9916 4.257 8.4874H2.4923V16.9328C2.4923 17.1569 2.56933 17.3389 2.72339 17.479C2.87745 17.619 3.06653 17.6891 3.29062 17.6891H17.1141C17.3382 17.6891 17.5203 17.619 17.6604 17.479C17.8004 17.3389 17.8704 17.1569 17.8704 16.9328V8.4874ZM17.8704 3.10924C17.8704 2.88515 17.8004 2.69608 17.6604 2.54202C17.5203 2.38796 17.3382 2.31092 17.1141 2.31092H14.8032C14.5791 2.31092 14.3971 2.38796 14.257 2.54202C14.1169 2.69608 14.0469 2.88515 14.0469 3.10924V5.37815C14.0469 5.60224 14.1169 5.79132 14.257 5.94538C14.3971 6.09944 14.5791 6.17647 14.8032 6.17647H17.1141C17.3382 6.17647 17.5203 6.09944 17.6604 5.94538C17.8004 5.79132 17.8704 5.60224 17.8704 5.37815V3.10924ZM10.1814 6.17647C9.11695 6.17647 8.21358 6.54762 7.47129 7.28992C6.72899 8.03221 6.35784 8.93557 6.35784 10C6.35784 10.5322 6.45588 11.0364 6.65196 11.5126C6.84804 11.9888 7.12115 12.402 7.47129 12.7521C7.82143 13.1022 8.22759 13.3754 8.68978 13.5714C9.15196 13.7675 9.64916 13.8655 10.1814 13.8655C10.7136 13.8655 11.2178 13.7675 11.694 13.5714C12.1702 13.3754 12.5833 13.1022 12.9335 12.7521C13.2836 12.402 13.5567 11.9888 13.7528 11.5126C13.9489 11.0364 14.0469 10.5322 14.0469 10C14.0469 9.46779 13.9489 8.97059 13.7528 8.5084C13.5567 8.04622 13.2836 7.64006 12.9335 7.28992C12.5833 6.93978 12.1702 6.66667 11.694 6.47059C11.2178 6.27451 10.7136 6.17647 10.1814 6.17647ZM2.4923 20C1.84804 20 1.30882 19.7759 0.874649 19.3277C0.440476 18.8796 0.223389 18.3333 0.223389 17.6891V2.31092C0.223389 1.66667 0.440476 1.12045 0.874649 0.672269C1.30882 0.22409 1.84804 0 2.4923 0H17.8704C18.5147 0 19.0609 0.22409 19.5091 0.672269C19.9573 1.12045 20.1814 1.66667 20.1814 2.31092V17.6891C20.1814 18.3333 19.9573 18.8796 19.5091 19.3277C19.0609 19.7759 18.5147 20 17.8704 20H2.4923Z" fill="white"/>
</svg>
