<svg width="311" height="83" viewBox="0 0 311 83" fill="none" xmlns="http://www.w3.org/2000/svg">
<path d="M242.556 0.0647944C250.158 -0.201664 257.023 7.25918 252.666 14.3909C248.324 21.2874 236.427 21.115 232.321 14.0617C228.387 7.05541 235.08 -0.0762719 242.431 0.0647944H242.556Z" fill="#FCBD29"/>
<path d="M118.23 40.1746C103.308 15.7858 63.5899 25.6134 63.1823 54.7358V54.8455C63.0569 74.7985 83.5272 87.0243 101.787 80.9427C118.794 75.7076 127.399 55.7232 118.23 40.1746ZM92.6025 62.7452C87.8376 62.7452 86.0821 59.6417 86.0821 54.2185C86.0821 48.7953 87.7592 45.6919 92.8533 45.6919C97.9473 45.6919 99.2013 49.0618 99.2013 54.0148C99.2013 59.579 97.6182 62.7452 92.6025 62.7452Z" fill="#FCBD29"/>
<path d="M181.489 74.5165C181.427 71.4914 183.59 68.623 186.489 67.808C190.643 66.5697 195.58 68.1841 199.985 68.0274C202.304 68.0431 207.931 67.4631 206.96 64.7359C206.427 63.7014 204.718 62.996 202.477 62.4475C199.687 61.7421 196.003 61.1779 192.461 60.018C182.759 57.275 177.869 48.4505 181.035 38.9207C183.699 30.3314 194.483 26.6009 203.213 26.3815C207.493 26.1621 211.458 26.4756 215.251 27.0555C218.699 27.5414 223.057 28.811 223.856 32.6511C224.42 35.2217 223.072 38.043 220.831 39.485C217.336 41.8048 212.461 40.6292 208.386 40.6606C206.019 40.6919 201.771 41.1464 201.536 43.7797C202.759 48.5289 218.433 46.5383 224.279 54.391C227.618 58.4662 228.527 64.2029 227.022 69.1403C224.844 77.902 213.982 82.3064 203.762 82.4005C199.279 82.5729 194.718 82.1967 190.486 81.4444C186.286 80.8174 181.599 79.297 181.505 74.6575V74.5478L181.489 74.5165Z" fill="#F29FC5"/>
<path d="M250.738 31.8988C252.854 35.9583 252.509 40.6762 252.619 47.369C252.619 52.3377 252.619 58.1057 252.619 62.902C252.619 67.4788 252.587 74.1089 250.566 77.087C247.917 81.5227 241.13 82.2438 237.007 79.5008C231.177 75.1748 233.058 65.5823 232.666 56.1935C232.666 54.3753 232.666 52.5258 232.666 50.7233C233.011 41.4443 231.255 32.463 237.885 28.7013C242.102 26.601 248.261 27.4787 250.707 31.8204L250.754 31.8988H250.738Z" fill="#FCBD29"/>
<path d="M128.167 54.0775C128.135 23.1213 174.687 18.2467 174.656 50.8173C174.687 51.7264 174.248 53.1214 173.214 53.0744C170.518 53.0744 146.819 53.1528 138.464 53.1684C137.163 53.1684 136.975 54.9083 137.054 56.0211C137.916 76.5698 156.333 83.0432 170.016 72.1497C171.066 71.1779 172.555 71.366 173.167 72.808C173.496 73.5604 173.088 74.2657 172.555 74.7986C169.499 77.7453 166.004 79.924 161.693 81.0369C144.64 85.5353 127.79 74.2343 128.151 54.2186V54.0775H128.167ZM165.283 49.0305C167.101 48.1057 165.439 43.1057 165.079 41.5853C163.386 35.3314 157.806 31.3345 151.051 32.1496C144.499 32.9019 139.232 38.7483 137.665 46.6167C137.493 47.4161 137.555 48.2155 137.916 48.6387C138.245 49.0462 138.511 49.1245 138.888 49.1245C141.066 49.0462 159.373 49.2813 165.236 49.0305L165.298 48.9992L165.283 49.0305ZM142.477 20.8643C147.163 17.1339 155.565 11.2247 159.985 7.88617C161.944 6.93006 162.493 8.79527 163.182 10.4254C163.543 11.4755 164.499 12.7138 164.138 13.7326C163.982 14.1715 163.715 14.4849 163.355 14.6103C161.301 15.4567 149.217 20.4724 144.499 22.416C144.013 22.5884 143.903 22.7295 143.449 22.7295C142.461 22.6668 141.96 21.789 142.414 20.9113L142.446 20.8486L142.477 20.8643Z" fill="white"/>
<path d="M286.772 60.4412L286.851 60.3941C293.308 57.4788 301.804 60.7703 307.666 56.1151C312.008 52.1339 311.49 45.3 309.594 40.206C307.838 35.4568 304.688 31.6166 299.86 29.2342C291.631 25.253 279.703 25.3627 271.757 29.5633C263.935 33.3251 259.202 42.0085 258.449 50.6762C255.863 75.018 273.152 84.7046 295.801 82.0556C300.017 81.413 303.81 80.1591 306.051 76.7892C308.591 72.7923 306.098 68.7954 301.71 67.949C297.431 66.8989 292.384 68.0274 288.355 66.5697C285.409 65.6293 283.011 62.3064 286.788 60.4412H286.772ZM280.393 47.7765C278.622 45.5822 279.891 41.9301 282.039 40.0336C286.208 36.7107 292.54 39.4066 292.948 44.7358V44.8768C293.387 48.3565 290.221 49.2812 287.18 49.3439C284.876 49.3439 282.117 49.4693 280.393 47.7922V47.7765Z" fill="#EC621D"/>
<path d="M20.8624 0.378167C18.1351 0.440863 15.7526 0.378167 12.6649 0.346819C12.4924 0.346819 12.3514 0.346819 12.226 0.378167C10.3608 0.472211 8.54259 0.81704 6.92816 1.444C1.88112 3.66971 0.611526 7.71361 0.329393 12.5726C0.282371 12.6353 0.235349 12.698 0.235349 12.7763C0.266697 20.5036 0.125631 30.8642 0.0472606 41.3344C0.0315865 42.0084 0.0315865 42.698 0.0315865 43.4034C-0.0154356 50.0648 -0.0311096 56.695 0.0315865 62.6511C-0.0154356 65.1746 -0.0624577 67.6198 0.172653 69.8611C0.172653 69.9865 0.172653 70.1119 0.172653 70.2373C0.172653 70.3 0.204001 70.3627 0.219675 70.4254C0.689896 74.2499 2.03786 77.4631 5.62722 79.5007C7.22597 80.3157 9.1382 80.833 11.1131 81.0367C11.1131 81.0838 11.1445 81.1151 11.2542 81.1151C11.6931 81.1151 12.1476 81.1151 12.6022 81.1151C12.7276 81.1151 12.8373 81.1151 12.9627 81.1151C13.2448 81.1151 13.5269 81.1151 13.8247 81.1151C13.8561 81.1151 13.8718 81.1151 13.8874 81.0837C17.6649 80.8957 21.3326 79.579 23.2762 77.0712C25.0473 75.0806 25.643 71.4286 25.8467 67.8705V67.8392C25.8467 67.7608 25.8467 67.6981 25.8467 67.6198C25.8781 67.0868 25.8937 66.5539 25.9094 66.0367C25.9564 65.3314 26.0348 64.673 26.1602 64.0618C26.9125 55.7859 35.2355 56.9144 41.3797 55.7075C55.549 53.6385 63.6682 43.1526 63.5271 29.046V28.8422C63.5428 3.29354 42.4612 -0.217446 20.8624 0.378167ZM31.458 37.3532H31.2856C26.8185 37.9175 25.6116 33.8579 25.5489 29.9394C25.5489 26.977 25.3765 23.4347 27.5395 21.2246C30.3765 18.9519 35.063 20.582 37.4925 23.3406C41.7715 28.7011 38.3076 36.836 31.458 37.3689V37.3532Z" fill="#EC621D"/>
</svg> 